# xmcd
#
# Track frame offsets:
#	150
#	20207
#	42915
#	66054
#	85501
#	111672
#	138539
#	163449
#	192159
#	209271
#
# Disc length: 3155 seconds
#
# Revision: 1
# Processed by: cddbd v1.5.2PL0 Copyright (c) Steve Scherf et al.
# Submitted via: audiograbber 1.83.01
#
DISCID=940c510a
DTITLE=Mary Chapin Carpenter - Songs from the Movie
DYEAR=2014
DGENRE=Country
TTITLE0=On and On It Goes
TTITLE1=I Am a Town
TTITLE2=Between Here and Gone
TTITLE3=Ideas Are Like Stars
TTITLE4=The Dreaming Road
TTITLE5=Only a Dream
TTITLE6=Come On Come On
TTITLE7=Mrs. Hemingway
TTITLE8=Where Time Stands Still
TTITLE9=Goodnight America
EXTD=
EXTT0=
EXTT1=
EXTT2=
EXTT3=
EXTT4=
EXTT5=
EXTT6=
EXTT7=
EXTT8=
EXTT9=
PLAYORDER=
